<svg id="Layer_1" data-name="Layer 1" xmlns="http://www.w3.org/2000/svg" viewBox="0 0 1080 301.69"><defs><style>.cls-1{fill:#4081cb;}.cls-2{fill:#444;}</style></defs><path class="cls-1" d="M234.31,39.82c26.53-1.09,50.55,7.45,73.16,20.62,2.61,1.52,5.26,3,8,4.58.41-8.84,1.05-17.21,1.1-25.58,0-4.34-1.76-8.25-6-10.34-6-3-12-6.06-18.21-8.69C266.24,9.33,239.06,5,211.07,10.4c-25.83,5-50,15-72.71,28.11V75.64C149.55,69.26,160.8,63,172.22,57.08,191.52,47.07,212.36,40.72,234.31,39.82ZM335.48,206.7a373.49,373.49,0,0,1-42,20.64c-28.66,12-58.31,16.41-88.39,5.86-14.33-5-27.95-12-42.24-18.31,0,8.49.16,17.64-.08,26.78-.1,3.66,1.24,5.85,4.44,7.27,1.83.81,3.54,1.89,5.34,2.75,26.91,12.69,54.33,22.64,85,18.16,26.78-3.91,52.13-12.17,75.46-25.58,2.24-1.29,4.46-2.62,6.69-3.91V204.25C338.27,205.06,336.88,205.9,335.48,206.7Z"/><path class="cls-1" d="M239.44,50.63c46.63-.84,85.08,37.36,86.29,83.77a86.35,86.35,0,1,1-172.65,2.89C153.08,87,193.66,50,239.44,50.63Z"/><path class="cls-2" d="M136.06,198.17q-40.2-22.38-80.2-45.11c-8.13-4.59-16.19-9.31-25-14.37,2.41-1.62,4-2.8,5.68-3.8,21.92-12.86,43.78-25.83,65.81-38.5,12-6.9,24-13.9,36-20.75h0V38.51c-.38.21-.77.39-1.14.61C106,57.28,75,75.77,43.82,94.11c-14.52,8.55-29,17.07-43.82,25.75v36l142.06,82.73c0-10.72-.25-20.37.1-30C142.34,203.54,140.4,200.59,136.06,198.17Z"/><path class="cls-2" d="M479.07,130c.42-5.81-1.95-8.74-6.71-11.49Q408.92,81.83,345.69,44.84c-2.56-1.49-5.24-2.77-8.93-4.7,0,11.08.2,20.92-.09,30.75-.13,4.29,1.57,6.7,5.14,8.7,23.28,13,46.48,26.24,69.7,39.38l36.85,20.83c-2.26,1.46-3.87,2.57-5.55,3.56-34.35,20.35-68.58,40.91-103.15,60.89v36.11c45.27-26.11,90.16-52.87,135.26-79.26,2.93-1.71,4.09-3.69,4-6.95C478.84,146.08,478.49,138,479.07,130Z"/><path class="cls-2" d="M1046.46,84.12c.26-2.4.43-3.23.43-4.05-.17-22.18-.22-44.37-.61-66.55-.2-11-.35-11.16,10.35-11.16,6.06,0,12.11.15,18.16,0,3.7-.13,5.22,1,5.21,5q-.16,64.1,0,128.18c0,3.61-1.19,4.9-4.7,4.85-7.69-.11-15.41.23-23.08-.15a9.58,9.58,0,0,1-6.38-3.25c-18.38-24.19-36.53-48.54-54.77-72.83-.94-1.25-2.12-2.3-4.4-4.74,0,6,0,10.46,0,14.9q.14,28.88.27,57.75c0,8.59-.06,8.49-8.46,8.23-6.59-.2-13.2-.08-19.8.1-3.83.1-5.47-1-5.45-5.32q.22-63.54,0-127.08c0-4.43,1.43-5.8,5.72-5.63,7,.28,14-.28,20.89.25a11.76,11.76,0,0,1,7.64,3.85c17.47,22.81,34.65,45.84,51.92,68.8C1041.41,77.84,1043.52,80.4,1046.46,84.12Z"/><path class="cls-2" d="M926.12,140.07H891.68c0-13.7,0-27,0-40.33,0-11.23,2.38-12.68-12.08-12.36-12.27.28-24.55,0-36.82,0a45.4,45.4,0,0,0-6.13.84c0,15.44-.2,30.46.11,45.46.11,5.1-1.54,6.85-6.57,6.67-8.24-.29-16.49-.13-24.74-.06-3.61,0-5.2-1.28-5.19-5.2q.15-63.52,0-127c0-4.3,1.6-5.86,5.86-5.75,8.06.22,16.14.28,24.2,0,4.77-.17,6.49,1.45,6.41,6.3-.24,14.66,0,29.33-.17,44-.07,4.39,1,6.13,5.75,6,14.66-.3,29.34-.23,44,0,4.15.06,5.47-1.45,5.43-5.41-.15-15,0-30.07-.19-45.1-.06-4.19,1.06-6,5.58-5.8,8.42.32,16.86.15,25.3.06,2.82,0,4.52.65,4.51,3.94q-.13,66.29-.17,132.55C926.76,139,926.61,139.13,926.12,140.07Z"/><path class="cls-2" d="M678.19,92.72c8.32,4.77,15.94,9.76,24.08,13.65,9.22,4.4,19.09,6.9,29.52,6.08a13.56,13.56,0,0,0,3.27-.26c4.78-1.59,9.3-3.74,10.11-9.41.79-5.48-2.47-9.38-6.88-11.38a182.64,182.64,0,0,0-20.88-7.51c-10.72-3.38-21.6-6.25-30.87-13.08C666.78,56.27,669.42,21,693.16,7.92,708.06-.26,723.93-1,740.31.85a111.88,111.88,0,0,1,37.22,11.31c4.4,2.18,4.79,4.67,2.77,8.67-3,6-6,12.06-8.54,18.26-1.64,3.95-3.4,4.52-7.48,2.86-10.52-4.29-21.22-8.19-32.06-11.59a21,21,0,0,0-11.92-.16c-3.4,1.08-7.19,3.93-8.76,7-1.94,3.84.42,8.11,4.32,10.11a162.33,162.33,0,0,0,17.81,7.73c7.79,2.88,15.85,5,23.62,7.94,28.25,10.54,31,41.11,19.11,58.79-7.75,11.5-19.46,16.82-32.48,19.15-27.11,4.84-51.79-1.85-74.46-17-3.51-2.34-4.62-5-2.34-9.16C671.12,107.55,674.6,100,678.19,92.72Z"/><path class="cls-2" d="M519.2,2.36h18.13c4.95,0,9.91.16,14.85,0,3.89-.16,5.86,1.4,7.11,5.12Q574,50.87,588.92,94.21c.63,1.85,1.4,3.66,2.58,6.71,4.15-11.8,8-22.48,11.68-33.21,6.69-19.49,13.43-39,19.84-58.56,1.69-5.17,4.27-7.2,9.83-6.92,9.31.48,18.66.13,28.84.13a34.73,34.73,0,0,1-1.09,4.87q-24.76,64.05-49.51,128.11c-1.43,3.73-3.47,5.08-7.29,5-9-.16-18-.11-26.94,0-3.48,0-5.58-1.09-7-4.69Q545.43,71.44,520.64,7.4C520.15,6.12,519.88,4.76,519.2,2.36Z"/><path class="cls-1" d="M610.2,272.32l-12-26.82H542.29l-11.82,26.82H519.81l45.41-100.77H575.6L621,272.32Zm-64-35.75h48.15l-24.22-54.5Z"/><path class="cls-1" d="M623.19,273.73h-13.9l-12-26.82H543.21l-11.82,26.82H517.63l46.68-103.59h12.2Zm-12.08-2.82h7.72l-44.14-98h-8.56l-44.15,98h7.58l11.82-26.81h57.76ZM596.5,238H544l26.08-59.38Zm-48.16-2.81h43.84l-22-49.61Z"/><path class="cls-1" d="M692.3,201.32a33.5,33.5,0,0,1,12.9,13.55,41.81,41.81,0,0,1,4.61,19.82,41.08,41.08,0,0,1-4.61,19.61,33.67,33.67,0,0,1-12.83,13.48,36.3,36.3,0,0,1-18.74,4.83,34.5,34.5,0,0,1-18.17-4.69,32.11,32.11,0,0,1-12.11-13v45.41h-9.66V196.78h9.66v17.44a31,31,0,0,1,12-13,34.59,34.59,0,0,1,18.09-4.69A36.7,36.7,0,0,1,692.3,201.32Zm-6,59.11a26.42,26.42,0,0,0,10.09-10.6,34.46,34.46,0,0,0,0-30.71,26.46,26.46,0,0,0-10.09-10.59,29.79,29.79,0,0,0-29.19,0A27.14,27.14,0,0,0,647,219.12a31.56,31.56,0,0,0-3.68,15.28A32.27,32.27,0,0,0,647,249.83a26.42,26.42,0,0,0,10.09,10.6,29.92,29.92,0,0,0,29.26,0Z"/><path class="cls-1" d="M644.76,301.69H632.29V195.37h12.47v13.76a32.16,32.16,0,0,1,9.91-9.16,36.22,36.22,0,0,1,18.81-4.89,38.23,38.23,0,0,1,19.52,5h0a35,35,0,0,1,13.44,14.11,43.36,43.36,0,0,1,4.78,20.48A42.63,42.63,0,0,1,706.44,255a35.27,35.27,0,0,1-13.36,14,37.87,37.87,0,0,1-19.45,5,36.07,36.07,0,0,1-18.89-4.88,33,33,0,0,1-10-9.25Zm-9.66-2.81H642V249.1l2.65,5.13a30.8,30.8,0,0,0,11.59,12.49,33.35,33.35,0,0,0,17.44,4.48,35.14,35.14,0,0,0,18-4.63A32.47,32.47,0,0,0,704,253.64a39.86,39.86,0,0,0,4.45-18.95A40.57,40.57,0,0,0,704,215.53a32.29,32.29,0,0,0-12.37-13,35.57,35.57,0,0,0-18.11-4.63,33.48,33.48,0,0,0-17.37,4.48,29.75,29.75,0,0,0-11.5,12.47L642,220.18v-22H635.1Zm36.65-33.23a30,30,0,0,1-15.42-4,27.93,27.93,0,0,1-10.61-11.15A33.87,33.87,0,0,1,642,234.4a33.11,33.11,0,0,1,3.84-16,28.7,28.7,0,0,1,10.61-11.13,31.18,31.18,0,0,1,30.63,0,27.84,27.84,0,0,1,10.61,11.14,35.9,35.9,0,0,1,0,32A27.93,27.93,0,0,1,687,261.64,29.72,29.72,0,0,1,671.75,265.65Zm0-59.54a26.74,26.74,0,0,0-13.91,3.63,25.82,25.82,0,0,0-9.58,10,30.37,30.37,0,0,0-3.5,14.61,31.13,31.13,0,0,0,3.44,14.77,25.12,25.12,0,0,0,9.56,10,27.11,27.11,0,0,0,14,3.63,26.83,26.83,0,0,0,13.85-3.63h0a25.06,25.06,0,0,0,9.56-10,33.11,33.11,0,0,0,0-29.39,25.19,25.19,0,0,0-9.56-10A26.89,26.89,0,0,0,671.75,206.11Z"/><path class="cls-1" d="M786.72,201.32a33.37,33.37,0,0,1,12.9,13.55,41.7,41.7,0,0,1,4.62,19.82,41,41,0,0,1-4.62,19.61,33.6,33.6,0,0,1-12.83,13.48,36.28,36.28,0,0,1-18.74,4.83,34.47,34.47,0,0,1-18.16-4.69,32,32,0,0,1-12.11-13v45.41h-9.66V196.78h9.66v17.44a31,31,0,0,1,12-13,34.6,34.6,0,0,1,18.1-4.69A36.69,36.69,0,0,1,786.72,201.32Zm-6,59.11a26.48,26.48,0,0,0,10.09-10.6,34.55,34.55,0,0,0,0-30.71,26.52,26.52,0,0,0-10.09-10.59,29.79,29.79,0,0,0-29.19,0,27.17,27.17,0,0,0-10.1,10.59,31.56,31.56,0,0,0-3.67,15.28,32.38,32.38,0,0,0,3.6,15.43,26.48,26.48,0,0,0,10.09,10.6,28.52,28.52,0,0,0,14.71,3.82A28.24,28.24,0,0,0,780.74,260.43Z"/><path class="cls-1" d="M739.18,301.69H726.71V195.37h12.47v13.76a32.16,32.16,0,0,1,9.91-9.16,36.23,36.23,0,0,1,18.82-4.89,38.26,38.26,0,0,1,19.52,5h0a35,35,0,0,1,13.44,14.11,43.36,43.36,0,0,1,4.77,20.48A42.51,42.51,0,0,1,800.86,255a35.24,35.24,0,0,1-13.35,14,37.91,37.91,0,0,1-19.46,5,36.1,36.1,0,0,1-18.89-4.88,33.14,33.14,0,0,1-10-9.25Zm-9.66-2.81h6.85V249.1l2.66,5.13a30.78,30.78,0,0,0,11.58,12.49,33.35,33.35,0,0,0,17.44,4.48,35.12,35.12,0,0,0,18-4.63,32.4,32.4,0,0,0,12.3-12.93,39.74,39.74,0,0,0,4.45-18.95,40.57,40.57,0,0,0-4.45-19.16,32.29,32.29,0,0,0-12.37-13,35.5,35.5,0,0,0-18.1-4.63,33.51,33.51,0,0,0-17.38,4.48A29.73,29.73,0,0,0,739,214.85l-2.67,5.33v-22h-6.85Zm36.66-33.23a30,30,0,0,1-15.42-4,28,28,0,0,1-10.62-11.15,33.87,33.87,0,0,1-3.77-16.09,33.12,33.12,0,0,1,3.85-16,28.63,28.63,0,0,1,10.61-11.13,31.16,31.16,0,0,1,30.62,0,27.93,27.93,0,0,1,10.62,11.14,35.9,35.9,0,0,1,0,32,28,28,0,0,1-10.62,11.15A29.68,29.68,0,0,1,766.18,265.65Zm0-59.54a26.69,26.69,0,0,0-13.91,3.63,25.82,25.82,0,0,0-9.58,10,30.26,30.26,0,0,0-3.51,14.61,31.13,31.13,0,0,0,3.44,14.77,25.21,25.21,0,0,0,9.57,10,27.11,27.11,0,0,0,14,3.63A26.82,26.82,0,0,0,780,259.21h0a25.13,25.13,0,0,0,9.56-10,33.11,33.11,0,0,0,0-29.39,25.21,25.21,0,0,0-9.57-10A26.82,26.82,0,0,0,766.18,206.11Z"/><path class="cls-1" d="M892.82,177.53a51.93,51.93,0,0,1,19.1,18.53A48.63,48.63,0,0,1,919,221.72a49.38,49.38,0,0,1-7.07,25.8,53.12,53.12,0,0,1-91.11,0,49.37,49.37,0,0,1-7.06-25.8,48.62,48.62,0,0,1,7.06-25.66,52,52,0,0,1,19.1-18.53,54.51,54.51,0,0,1,52.91,0Zm-47.64,7.72a42.26,42.26,0,0,0-15.57,15.28,40.52,40.52,0,0,0-5.77,21.19,41.25,41.25,0,0,0,5.77,21.33,42.47,42.47,0,0,0,15.57,15.5,41.67,41.67,0,0,0,21.33,5.7,41.07,41.07,0,0,0,21.12-5.7,42.74,42.74,0,0,0,15.5-15.5,41.34,41.34,0,0,0,5.77-21.33,40.61,40.61,0,0,0-5.77-21.19,42.53,42.53,0,0,0-15.5-15.28,41.49,41.49,0,0,0-21.12-5.63A42.1,42.1,0,0,0,845.18,185.25Z"/><path class="cls-1" d="M866.37,274.59a54,54,0,0,1-46.76-26.35,51,51,0,0,1-7.27-26.52,50.27,50.27,0,0,1,7.27-26.39,53.57,53.57,0,0,1,19.61-19,55.94,55.94,0,0,1,54.3,0h0a53.73,53.73,0,0,1,19.61,19,50.29,50.29,0,0,1,7.26,26.39,51,51,0,0,1-7.26,26.52,54,54,0,0,1-46.76,26.35Zm0-102.5a51.43,51.43,0,0,0-25.76,6.66,50.86,50.86,0,0,0-18.6,18,47.47,47.47,0,0,0-6.86,24.93A48.17,48.17,0,0,0,822,246.8a51.71,51.71,0,0,0,88.7,0,48.25,48.25,0,0,0,6.86-25.08,47.47,47.47,0,0,0-6.86-24.93,50.91,50.91,0,0,0-18.59-18h0A51.48,51.48,0,0,0,866.37,172.09Zm.14,93.56a43.33,43.33,0,0,1-22-5.88,44.21,44.21,0,0,1-16.08-16,43,43,0,0,1-6-22.05,42.1,42.1,0,0,1,6-21.91A43.85,43.85,0,0,1,844.48,184h0a43.65,43.65,0,0,1,22-5.81A43,43,0,0,1,888.33,184a44.19,44.19,0,0,1,16,15.78,42.12,42.12,0,0,1,6,21.91,42.9,42.9,0,0,1-6,22.05,44.38,44.38,0,0,1-16,16A42.68,42.68,0,0,1,866.51,265.65Zm0-84.62a41,41,0,0,0-20.63,5.43h0a41.23,41.23,0,0,0-15.06,14.79,39.37,39.37,0,0,0-5.56,20.47,40.08,40.08,0,0,0,5.57,20.62,41.42,41.42,0,0,0,15.06,15,40.54,40.54,0,0,0,20.63,5.5,39.85,39.85,0,0,0,20.41-5.5,41.64,41.64,0,0,0,15-15,40.13,40.13,0,0,0,5.57-20.62,39.34,39.34,0,0,0-5.57-20.47,41.35,41.35,0,0,0-15-14.79A40.35,40.35,0,0,0,866.51,181Z"/><path class="cls-1" d="M995.61,201.32a33.44,33.44,0,0,1,12.9,13.55,41.7,41.7,0,0,1,4.62,19.82,41,41,0,0,1-4.62,19.61,33.6,33.6,0,0,1-12.83,13.48,36.3,36.3,0,0,1-18.74,4.83,34.47,34.47,0,0,1-18.16-4.69,32,32,0,0,1-12.11-13v45.41H937V196.78h9.66v17.44a31,31,0,0,1,12-13,34.6,34.6,0,0,1,18.1-4.69A36.69,36.69,0,0,1,995.61,201.32Zm-6,59.11a26.55,26.55,0,0,0,10.09-10.6,34.55,34.55,0,0,0,0-30.71,26.59,26.59,0,0,0-10.09-10.59,29.81,29.81,0,0,0-29.2,0,27.21,27.21,0,0,0-10.09,10.59,31.56,31.56,0,0,0-3.67,15.28,32.38,32.38,0,0,0,3.6,15.43,26.48,26.48,0,0,0,10.09,10.6,28.52,28.52,0,0,0,14.71,3.82A28.24,28.24,0,0,0,989.63,260.43Z"/><path class="cls-1" d="M948.07,301.69H935.6V195.37h12.47v13.76A32.16,32.16,0,0,1,958,200a36.23,36.23,0,0,1,18.82-4.89,38.26,38.26,0,0,1,19.52,5h0a34.92,34.92,0,0,1,13.43,14.11,43.36,43.36,0,0,1,4.78,20.48,42.63,42.63,0,0,1-4.78,20.27,35.2,35.2,0,0,1-13.36,14,37.84,37.84,0,0,1-19.45,5,36.1,36.1,0,0,1-18.89-4.88,33.14,33.14,0,0,1-10-9.25Zm-9.66-2.81h6.85V249.1l2.66,5.13a30.71,30.71,0,0,0,11.58,12.49,33.35,33.35,0,0,0,17.44,4.48,35.12,35.12,0,0,0,18-4.63,32.47,32.47,0,0,0,12.3-12.93,39.86,39.86,0,0,0,4.45-18.95,40.57,40.57,0,0,0-4.45-19.16,32.29,32.29,0,0,0-12.37-13,35.5,35.5,0,0,0-18.1-4.63,33.51,33.51,0,0,0-17.38,4.48,29.75,29.75,0,0,0-11.5,12.47l-2.66,5.33v-22h-6.85Zm36.66-33.23a30,30,0,0,1-15.42-4A28,28,0,0,1,949,250.49a33.87,33.87,0,0,1-3.77-16.09,33,33,0,0,1,3.85-16,28.63,28.63,0,0,1,10.61-11.13,31.16,31.16,0,0,1,30.62,0A27.93,27.93,0,0,1,1001,218.46a35.9,35.9,0,0,1,0,32,28,28,0,0,1-10.62,11.15A29.68,29.68,0,0,1,975.07,265.65Zm0-59.54a26.76,26.76,0,0,0-13.92,3.63,25.8,25.8,0,0,0-9.57,10,30.26,30.26,0,0,0-3.51,14.61,31.13,31.13,0,0,0,3.44,14.77,25.19,25.19,0,0,0,9.56,10,27.17,27.17,0,0,0,14,3.63,26.82,26.82,0,0,0,13.84-3.63h0a25.08,25.08,0,0,0,9.57-10,33.11,33.11,0,0,0,0-29.39,25.21,25.21,0,0,0-9.57-10A26.82,26.82,0,0,0,975.07,206.11Z"/><path class="cls-1" d="M1060.12,205.93a38.38,38.38,0,0,0-10.52-1.51q-7.21,0-11.61,2.81a9.35,9.35,0,0,0-4.4,8.43A8.77,8.77,0,0,0,1036,222a18.14,18.14,0,0,0,5.91,4,94.13,94.13,0,0,0,9.88,3.39,99.26,99.26,0,0,1,12.68,4.54,22.9,22.9,0,0,1,8.37,6.49q3.45,4.25,3.46,11.17,0,10.24-7.79,15.64T1049,272.61a46.78,46.78,0,0,1-15.86-2.74,35.11,35.11,0,0,1-12.83-7.79l3.89-6.92a36.71,36.71,0,0,0,11.61,7.07,37.45,37.45,0,0,0,13.62,2.59q7.63,0,12.47-3.17a10.35,10.35,0,0,0,4.83-9.22,9.75,9.75,0,0,0-2.45-6.85,16.91,16.91,0,0,0-6.13-4.18q-3.68-1.52-10.16-3.54a101.41,101.41,0,0,1-12.4-4.46,22,22,0,0,1-8.07-6.28c-2.21-2.74-3.32-6.31-3.32-10.74q0-9.94,7.43-15t18.52-5a45.1,45.1,0,0,1,12.54,1.73,40.79,40.79,0,0,1,10.82,4.75l-3.75,7.35A36.89,36.89,0,0,0,1060.12,205.93Z"/><path class="cls-1" d="M1049,274a48.26,48.26,0,0,1-16.33-2.82,36.45,36.45,0,0,1-13.34-8.1l-.78-.75,5.3-9.41,1.3,1.2a35.53,35.53,0,0,0,11.17,6.79,36.14,36.14,0,0,0,13.11,2.5c4.79,0,8.73-1,11.7-2.94a9,9,0,0,0,4.2-8.05,8.34,8.34,0,0,0-2.08-5.9,15.62,15.62,0,0,0-5.63-3.83c-2.38-1-5.76-2.16-10.05-3.49a104,104,0,0,1-12.56-4.53,23.41,23.41,0,0,1-8.59-6.67c-2.4-3-3.62-6.9-3.62-11.63,0-7.09,2.7-12.53,8-16.15,5.16-3.51,11.66-5.29,19.31-5.29a47.16,47.16,0,0,1,12.93,1.78,42.74,42.74,0,0,1,11.18,4.93l1.08.68-5,9.87-1.3-.83a35.49,35.49,0,0,0-9.29-4.08h0a37.23,37.23,0,0,0-10.14-1.47c-4.52,0-8.17.88-10.85,2.6a8,8,0,0,0-3.75,7.24,7.33,7.33,0,0,0,2,5.37,16.65,16.65,0,0,0,5.46,3.65,90.56,90.56,0,0,0,9.72,3.33,102.41,102.41,0,0,1,12.87,4.61,24.48,24.48,0,0,1,8.87,6.88c2.5,3.08,3.77,7.14,3.77,12.06,0,7.28-2.82,12.93-8.39,16.8C1063.88,272.11,1057.06,274,1049,274Zm-26.92-12.2a34.22,34.22,0,0,0,11.54,6.74A45.47,45.47,0,0,0,1049,271.2c7.46,0,13.73-1.73,18.66-5.15s7.18-8.1,7.18-14.49c0-4.26-1.06-7.72-3.14-10.29a21.81,21.81,0,0,0-7.86-6.09,98.2,98.2,0,0,0-12.5-4.47,96,96,0,0,1-10-3.45A19.32,19.32,0,0,1,1035,223a10.13,10.13,0,0,1-2.77-7.33,10.7,10.7,0,0,1,5-9.61c3.15-2,7.31-3,12.37-3a40,40,0,0,1,10.9,1.57,39.12,39.12,0,0,1,8.71,3.62l2.47-4.84a40.42,40.42,0,0,0-9.35-3.93,44.3,44.3,0,0,0-12.16-1.68c-7.07,0-13,1.62-17.73,4.8s-6.81,7.64-6.81,13.83c0,4.08,1,7.39,3,9.86a20.64,20.64,0,0,0,7.56,5.88,102.16,102.16,0,0,0,12.23,4.4c4.44,1.38,7.8,2.55,10.29,3.58a18.32,18.32,0,0,1,6.63,4.53,11.12,11.12,0,0,1,2.82,7.8,11.72,11.72,0,0,1-5.47,10.4c-3.43,2.25-7.89,3.4-13.24,3.4a40.07,40.07,0,0,1-24.85-8.88Z"/></svg>