<svg id="Layer_1" data-name="Layer 1" xmlns="http://www.w3.org/2000/svg" viewBox="0 0 1080 295.75"><defs><style>.cls-1{fill:#4081cb;}.cls-2{fill:#444;}</style></defs><path class="cls-1" d="M233.84,39.74c26.47-1.09,50.44,7.43,73,20.58,2.61,1.52,5.25,3,8,4.57.41-8.83,1.05-17.17,1.1-25.53,0-4.33-1.76-8.24-6-10.32-6-2.95-12-6.05-18.17-8.67C265.7,9.31,238.57,5,210.64,10.38c-25.78,4.95-49.85,15-72.56,28.05V75.49c11.17-6.37,22.39-12.61,33.79-18.53C191.13,47,211.93,40.64,233.84,39.74Zm101,166.54a372.76,372.76,0,0,1-41.94,20.6c-28.6,12-58.2,16.37-88.22,5.85-14.29-5-27.89-12-42.15-18.27,0,8.46.16,17.6-.08,26.72-.1,3.65,1.24,5.84,4.44,7.26,1.82.81,3.52,1.89,5.32,2.74C199,263.85,226.39,273.77,257,269.3c26.72-3.89,52-12.14,75.31-25.53,2.23-1.28,4.44-2.61,6.68-3.89v-36C337.58,204.65,336.2,205.48,334.8,206.28Z"/><path class="cls-1" d="M239,50.53c46.55-.84,84.91,37.29,86.13,83.6A86.18,86.18,0,1,1,152.77,137C152.77,86.85,193.27,49.86,239,50.53Z"/><path class="cls-2" d="M135.78,197.77q-40.11-22.34-80-45c-8.11-4.58-16.15-9.29-24.92-14.34,2.42-1.62,4-2.8,5.68-3.79,21.88-12.84,43.69-25.78,65.68-38.43,12-6.88,23.9-13.86,35.9-20.7h0V38.43c-.37.22-.76.39-1.14.61C105.78,57.17,74.8,75.62,43.73,93.92c-14.49,8.53-29,17-43.73,25.7v36l141.77,82.56c0-10.71-.25-20.33.1-29.94C142.05,203.12,140.11,200.18,135.78,197.77Z"/><path class="cls-2" d="M478.1,129.7c.42-5.8-2-8.73-6.7-11.47Q408.1,81.66,345,44.75c-2.55-1.49-5.23-2.76-8.91-4.69,0,11.06.2,20.88-.09,30.69-.13,4.28,1.57,6.68,5.13,8.68Q376,99,410.68,118.72l36.78,20.8c-2.26,1.45-3.87,2.56-5.54,3.55C407.63,163.38,373.47,183.9,339,203.84v36c45.17-26.07,90-52.77,135-79.11,2.92-1.71,4.08-3.68,4-6.93C477.87,145.79,477.52,137.7,478.1,129.7Z"/><path class="cls-2" d="M1044.34,84c.26-2.4.43-3.22.43-4-.17-22.14-.21-44.28-.61-66.42-.2-11-.35-11.13,10.34-11.13,6,0,12.08.15,18.11-.06,3.7-.12,5.21,1,5.2,5q-.16,64,0,127.92c0,3.6-1.18,4.89-4.68,4.84-7.68-.11-15.38.23-23-.15a9.51,9.51,0,0,1-6.36-3.25c-18.35-24.14-36.47-48.44-54.67-72.68-.93-1.24-2.11-2.3-4.38-4.73,0,6,0,10.44,0,14.87q.14,28.82.27,57.64c0,8.56-.06,8.46-8.44,8.21-6.58-.2-13.17-.08-19.76.09-3.82.1-5.46-1-5.44-5.3q.23-63.42,0-126.83c0-4.42,1.42-5.79,5.71-5.62C964,2.56,971,2,977.86,2.54a11.66,11.66,0,0,1,7.63,3.84c17.44,22.76,34.58,45.75,51.82,68.66C1039.3,77.68,1041.4,80.24,1044.34,84Z"/><path class="cls-2" d="M924.24,139.78H889.87c0-13.67,0-27,0-40.25-.06-11.2,2.37-12.64-12.06-12.32-12.24.27-24.5,0-36.75,0a48.32,48.32,0,0,0-6.11.84c0,15.41-.2,30.4.11,45.37.1,5.09-1.54,6.84-6.56,6.66-8.22-.29-16.46-.13-24.69-.06-3.61,0-5.19-1.28-5.18-5.19q.15-63.41,0-126.8c0-4.29,1.6-5.85,5.85-5.73,8,.21,16.11.27,24.15,0,4.76-.18,6.47,1.44,6.39,6.28-.23,14.64.06,29.28-.17,43.91-.07,4.38,1,6.12,5.74,6,14.64-.29,29.28-.23,43.92,0,4.13.05,5.45-1.45,5.41-5.41-.15-15,0-30-.19-45-.05-4.18,1.07-6,5.57-5.78,8.41.31,16.84.14,25.25.06,2.82,0,4.52.65,4.51,3.93q-.13,66.14-.18,132.28C924.88,138.7,924.73,138.85,924.24,139.78Z"/><path class="cls-2" d="M676.82,92.54c8.3,4.76,15.9,9.73,24,13.61,9.2,4.4,19,6.89,29.46,6.07a14,14,0,0,0,3.26-.25c4.77-1.59,9.29-3.74,10.1-9.4.78-5.47-2.48-9.36-6.87-11.35A184.58,184.58,0,0,0,716,83.72c-10.7-3.37-21.56-6.24-30.81-13C665.43,56.16,668.07,20.9,691.76,7.9c14.87-8.16,30.71-8.92,47-7A111.41,111.41,0,0,1,776,12.14c4.4,2.18,4.78,4.65,2.77,8.64-3,6-6,12-8.52,18.23-1.64,3.94-3.39,4.51-7.46,2.85-10.5-4.27-21.19-8.17-32-11.56a21,21,0,0,0-11.9-.16c-3.39,1.08-7.17,3.92-8.74,7-1.94,3.83.42,8.1,4.31,10.1A162.83,162.83,0,0,0,732.19,55c7.77,2.87,15.81,5,23.57,7.92,28.19,10.52,31,41,19.07,58.67-7.73,11.48-19.42,16.79-32.41,19.11-27.06,4.84-51.69-1.84-74.32-16.91-3.5-2.33-4.6-5-2.33-9.14C669.76,107.33,673.24,99.76,676.82,92.54Z"/><path class="cls-2" d="M518.15,2.36h18.09c4.94,0,9.89.16,14.82,0,3.88-.17,5.85,1.39,7.1,5.1,9.75,28.91,19.68,57.75,29.57,86.61.63,1.85,1.39,3.65,2.57,6.7,4.15-11.78,8-22.44,11.65-33.15,6.69-19.45,13.41-38.89,19.81-58.44C623.45,4,626,2,631.57,2.23c9.29.47,18.62.13,28.78.13a36.54,36.54,0,0,1-1.08,4.86q-24.72,63.92-49.42,127.85c-1.43,3.71-3.46,5.07-7.27,5-9-.17-17.93-.11-26.89,0-3.47,0-5.56-1.09-6.93-4.69q-24.43-64-49.17-128C519.1,6.11,518.83,4.75,518.15,2.36Z"/><path class="cls-1" d="M601.73,268.58l-11-24.6H539.44l-10.84,24.6h-9.79l41.66-92.44H570l41.66,92.44ZM543,235.78h44.17l-22.21-50Z"/><path class="cls-1" d="M614,270.09H600.75l-11-24.59H540.43l-10.84,24.59H516.47l43-95.47H571Zm-11.29-3h6.6L569,177.65h-7.56l-40.29,89.41h6.45l10.84-24.59h53.29ZM589.52,237.3H540.69L565,182Zm-44.19-3h39.52L565,189.54Z"/><path class="cls-1" d="M677.05,203.45a30.62,30.62,0,0,1,11.83,12.43,38.28,38.28,0,0,1,4.23,18.18,37.65,37.65,0,0,1-4.23,18,30.81,30.81,0,0,1-11.77,12.36,33.22,33.22,0,0,1-17.19,4.43,31.63,31.63,0,0,1-16.66-4.3,29.31,29.31,0,0,1-11.11-12v41.65h-8.86v-95h8.86v16a28.39,28.39,0,0,1,11-12,31.82,31.82,0,0,1,16.6-4.29A33.63,33.63,0,0,1,677.05,203.45Zm-5.49,54.22a24.33,24.33,0,0,0,9.25-9.72,29.61,29.61,0,0,0,3.31-14.15,29.32,29.32,0,0,0-3.31-14,24.33,24.33,0,0,0-9.25-9.72,27.3,27.3,0,0,0-26.78,0,24.9,24.9,0,0,0-9.26,9.72,28.9,28.9,0,0,0-3.37,14,29.73,29.73,0,0,0,3.3,14.15,24.35,24.35,0,0,0,9.26,9.72,26.06,26.06,0,0,0,13.49,3.5A25.8,25.8,0,0,0,671.56,257.67Z"/><path class="cls-1" d="M633.66,295.75H621.77v-98h11.89v12.14a29.83,29.83,0,0,1,8.75-7.9,33.49,33.49,0,0,1,17.38-4.51,35.27,35.27,0,0,1,18,4.64h0a32.27,32.27,0,0,1,12.41,13,39.91,39.91,0,0,1,4.41,18.89,39.38,39.38,0,0,1-4.41,18.7,32.51,32.51,0,0,1-12.34,13,34.9,34.9,0,0,1-18,4.64,33.3,33.3,0,0,1-17.45-4.52,30.67,30.67,0,0,1-8.81-8Zm-8.86-3h5.83V246.35l2.86,5.53A28.12,28.12,0,0,0,644,263.25a30.31,30.31,0,0,0,15.88,4.08,31.91,31.91,0,0,0,16.42-4.22,29.59,29.59,0,0,0,11.21-11.78,36.38,36.38,0,0,0,4.05-17.27,37,37,0,0,0-4.06-17.47,29.19,29.19,0,0,0-11.26-11.83,32.23,32.23,0,0,0-16.49-4.23A30.49,30.49,0,0,0,644,204.62,27,27,0,0,0,633.5,216l-2.87,5.74V200.8H624.8Zm33.4-30A27.65,27.65,0,0,1,643.94,259a25.86,25.86,0,0,1-9.82-10.31,31.16,31.16,0,0,1-3.49-14.86,30.55,30.55,0,0,1,3.56-14.74,26.44,26.44,0,0,1,9.81-10.3,28.86,28.86,0,0,1,28.33,0,25.89,25.89,0,0,1,9.82,10.32,33.1,33.1,0,0,1,0,29.59A25.8,25.8,0,0,1,672.33,259,27.41,27.41,0,0,1,658.2,262.69Zm0-54.62a24.39,24.39,0,0,0-12.65,3.29,23.56,23.56,0,0,0-8.7,9.14,27.64,27.64,0,0,0-3.19,13.3,28.27,28.27,0,0,0,3.13,13.44,22.85,22.85,0,0,0,8.69,9.12,25.91,25.91,0,0,0,25.31,0h0a22.92,22.92,0,0,0,8.69-9.12,30.14,30.14,0,0,0,0-26.75,23,23,0,0,0-8.69-9.13A24.53,24.53,0,0,0,658.2,208.07Z"/><path class="cls-1" d="M763.67,203.45a30.62,30.62,0,0,1,11.83,12.43,38.28,38.28,0,0,1,4.23,18.18,37.65,37.65,0,0,1-4.23,18,30.81,30.81,0,0,1-11.77,12.36,33.22,33.22,0,0,1-17.19,4.43,31.63,31.63,0,0,1-16.66-4.3,29.37,29.37,0,0,1-11.11-12v41.65h-8.86v-95h8.86v16a28.39,28.39,0,0,1,11-12,31.82,31.82,0,0,1,16.6-4.29A33.6,33.6,0,0,1,763.67,203.45Zm-5.49,54.22a24.33,24.33,0,0,0,9.25-9.72,29.61,29.61,0,0,0,3.31-14.15,29.32,29.32,0,0,0-3.31-14,24.33,24.33,0,0,0-9.25-9.72,27.3,27.3,0,0,0-26.78,0,24.9,24.9,0,0,0-9.26,9.72,28.9,28.9,0,0,0-3.37,14,29.73,29.73,0,0,0,3.3,14.15,24.35,24.35,0,0,0,9.26,9.72,26.06,26.06,0,0,0,13.49,3.5A25.8,25.8,0,0,0,758.18,257.67Z"/><path class="cls-1" d="M720.28,295.75H708.39v-98h11.89v12.14A29.83,29.83,0,0,1,729,202a33.49,33.49,0,0,1,17.38-4.51,35.27,35.27,0,0,1,18,4.64h0a32.27,32.27,0,0,1,12.41,13,39.91,39.91,0,0,1,4.41,18.89,39.26,39.26,0,0,1-4.41,18.7,32.51,32.51,0,0,1-12.34,13,34.9,34.9,0,0,1-18,4.64,33.24,33.24,0,0,1-17.44-4.52,30.58,30.58,0,0,1-8.82-8Zm-8.86-3h5.83V246.35l2.86,5.53a28.12,28.12,0,0,0,10.55,11.37,30.31,30.31,0,0,0,15.88,4.08A31.91,31.91,0,0,0,763,263.11a29.59,29.59,0,0,0,11.21-11.78,36.38,36.38,0,0,0,4.05-17.27,37,37,0,0,0-4.06-17.47,29.19,29.19,0,0,0-11.26-11.83,32.23,32.23,0,0,0-16.49-4.23,30.43,30.43,0,0,0-15.82,4.09A27,27,0,0,0,720.12,216l-2.87,5.74V200.8h-5.83Zm33.4-30A27.65,27.65,0,0,1,730.56,259a25.86,25.86,0,0,1-9.82-10.31,31.16,31.16,0,0,1-3.49-14.86,30.55,30.55,0,0,1,3.56-14.74,26.44,26.44,0,0,1,9.81-10.3,28.86,28.86,0,0,1,28.33,0,25.89,25.89,0,0,1,9.82,10.32,33.1,33.1,0,0,1,0,29.59A25.8,25.8,0,0,1,759,259,27.41,27.41,0,0,1,744.82,262.69Zm0-54.62a24.39,24.39,0,0,0-12.65,3.29,23.56,23.56,0,0,0-8.7,9.14,27.64,27.64,0,0,0-3.19,13.3,28.39,28.39,0,0,0,3.13,13.44,22.85,22.85,0,0,0,8.69,9.12,25.91,25.91,0,0,0,25.31,0h0a22.92,22.92,0,0,0,8.69-9.12,30.14,30.14,0,0,0,0-26.75,23,23,0,0,0-8.69-9.13A24.53,24.53,0,0,0,744.82,208.07Z"/><path class="cls-1" d="M797.45,176.14h57.93v8.2h-48.8v35.57h43.51v8.2H806.58v40.47h-9.13Z"/><path class="cls-1" d="M808.09,270.09H795.94V174.62h60.95v11.23h-48.8V218.4H851.6v11.23H808.09Zm-9.12-3h6.09V226.6h43.51v-5.17H805.06V182.82h48.8v-5.17H799Z"/><path class="cls-1" d="M867.94,170.45h8.86v98.13h-8.86Z"/><path class="cls-1" d="M878.32,270.09H866.43V168.94h11.89Zm-8.86-3h5.83V172h-5.83Z"/><path class="cls-1" d="M946.49,203.45a31.86,31.86,0,0,1,12.44,12.36,35.93,35.93,0,0,1,4.49,18A36.52,36.52,0,0,1,958.93,252a31.71,31.71,0,0,1-12.44,12.43,38.72,38.72,0,0,1-36,0A31.75,31.75,0,0,1,898.09,252a36.41,36.41,0,0,1-4.49-18.18,35.83,35.83,0,0,1,4.49-18,31.9,31.9,0,0,1,12.43-12.36,38.72,38.72,0,0,1,36,0ZM915,210.12a23.94,23.94,0,0,0-9.26,9.66,32.27,32.27,0,0,0,0,28.43,23.88,23.88,0,0,0,9.26,9.66,28.24,28.24,0,0,0,27,0,23.88,23.88,0,0,0,9.26-9.66,32.27,32.27,0,0,0,0-28.43,23.94,23.94,0,0,0-9.26-9.66,28.24,28.24,0,0,0-27,0Z"/><path class="cls-1" d="M928.51,270.36a37.94,37.94,0,0,1-18.73-4.63,33.35,33.35,0,0,1-13-13,38.11,38.11,0,0,1-4.69-18.92,37.56,37.56,0,0,1,4.69-18.74,33.59,33.59,0,0,1,13-12.94,40.24,40.24,0,0,1,37.44,0h0a33.57,33.57,0,0,1,13,12.94,37.49,37.49,0,0,1,4.7,18.74,38.14,38.14,0,0,1-4.69,18.92,33.37,33.37,0,0,1-13,13A37.84,37.84,0,0,1,928.51,270.36Zm0-69.83a35,35,0,0,0-17.25,4.24,30.59,30.59,0,0,0-11.85,11.79,34.51,34.51,0,0,0-4.3,17.24,35.2,35.2,0,0,0,4.3,17.44,30.47,30.47,0,0,0,11.85,11.85,37.19,37.19,0,0,0,34.49,0,30.41,30.41,0,0,0,11.85-11.85,35.09,35.09,0,0,0,4.31-17.44,34.57,34.57,0,0,0-4.3-17.24,30.59,30.59,0,0,0-11.85-11.79h0A35,35,0,0,0,928.51,200.53Zm0,62.29a28.16,28.16,0,0,1-14.25-3.64,25.37,25.37,0,0,1-9.83-10.26,33.66,33.66,0,0,1,0-29.85,25.37,25.37,0,0,1,9.83-10.26h0a29.71,29.71,0,0,1,28.5,0,25.5,25.5,0,0,1,9.83,10.26,33.66,33.66,0,0,1,0,29.85,25.5,25.5,0,0,1-9.83,10.26A28.16,28.16,0,0,1,928.51,262.82Zm-12.73-51.38h0a22.46,22.46,0,0,0-8.68,9.05,30.7,30.7,0,0,0,0,27,22.4,22.4,0,0,0,8.68,9.05,26.63,26.63,0,0,0,25.46,0,22.4,22.4,0,0,0,8.68-9.05,30.7,30.7,0,0,0,0-27,22.46,22.46,0,0,0-8.68-9.05,26.63,26.63,0,0,0-25.46,0Z"/><path class="cls-1" d="M965,199.28h9.52l21.29,60.44,21-60.44h9.39l21.16,60.44,21.16-60.44h9.26l-25.92,69.3h-9.26L1021.48,210l-21.16,58.59h-9.26Z"/><path class="cls-1" d="M1053,270.09h-11.37l-20.1-55.64-20.1,55.64H990l-27.19-72.32H975.6l20.21,57.36,20-57.36h11.55l20.08,57.36,20.09-57.36H1080Zm-9.25-3h7.15l24.78-66.26h-6l-22.23,63.5-22.23-63.5h-7.24l-22.1,63.5-22.37-63.5H967.2l24.91,66.26h7.15l22.22-61.53Z"/></svg>